<svg xmlns="http://www.w3.org/2000/svg" xmlns:xlink="http://www.w3.org/1999/xlink" width="500" zoomAndPan="magnify" viewBox="0 0 375 374.999991" height="500" preserveAspectRatio="xMidYMid meet" version="1.0"><defs><clipPath id="7c5126202b"><path d="M 25 0 L 350 0 L 350 375 L 25 375 Z M 25 0 " clip-rule="nonzero"/></clipPath><clipPath id="ec7ac15987"><path d="M -55.878906 142.882812 L 268.328125 -46.476562 L 431 232.042969 L 106.789062 421.402344 Z M -55.878906 142.882812 " clip-rule="nonzero"/></clipPath><clipPath id="a52131bd05"><path d="M 349.546875 92.851562 L 349.859375 279.433594 L 187.8125 374.078125 L 25.453125 282.140625 L 25.140625 95.5625 L 187.1875 0.917969 Z M 349.546875 92.851562 " clip-rule="nonzero"/></clipPath><clipPath id="44b78eb215"><path d="M 55.238281 35.632812 L 319.726562 35.632812 L 319.726562 339.21875 L 55.238281 339.21875 Z M 55.238281 35.632812 " clip-rule="nonzero"/></clipPath></defs><rect x="-37.5" width="450" fill="#ffffff" y="-37.499999" height="449.999989" fill-opacity="1"/><rect x="-37.5" width="450" fill="#122003" y="-37.499999" height="449.999989" fill-opacity="1"/><g clip-path="url(#7c5126202b)"><g clip-path="url(#ec7ac15987)"><g clip-path="url(#a52131bd05)"><path fill="#65b30e" d="M -55.878906 142.882812 L 268.332031 -46.476562 L 431 232.042969 L 106.789062 421.402344 Z M -55.878906 142.882812 " fill-opacity="1" fill-rule="nonzero"/></g></g></g><path fill="#87ff00" d="M 134.621094 135.75 L 134.453125 135.582031 L 97.054688 172.976562 L 187.855469 263.609375 L 225.253906 226.386719 L 278.65625 172.976562 L 241.257812 135.582031 L 241.257812 135.414062 L 134.457031 135.414062 Z M 134.621094 135.75 " fill-opacity="1" fill-rule="nonzero"/><g clip-path="url(#44b78eb215)"><path fill="#87ff00" d="M 187.515625 35.851562 L 55.269531 111.660156 L 55.273438 263.28125 L 187.519531 339.09375 L 319.765625 263.28125 L 319.765625 111.660156 L 187.519531 35.855469 Z M 294.488281 248.785156 L 187.515625 310.441406 L 80.539062 248.785156 L 80.542969 125.808594 L 187.519531 64.148438 L 294.492188 125.804688 L 294.492188 248.78125 Z M 294.488281 248.785156 " fill-opacity="1" fill-rule="nonzero"/></g></svg>